<svg version="1.1" xmlns="http://www.w3.org/2000/svg" xmlns:xlink="http://www.w3.org/1999/xlink" width="192" height="192" viewBox="0 0 192 192">
  <g fill="none" fill-rule="none" stroke="none" stroke-width="1" stroke-linecap="butt" stroke-linejoin="miter" stroke-miterlimit="10" stroke-dasharray="" stroke-dashoffset="0" font-family="none" font-weight="none" font-size="none" text-anchor="none" style="mix-blend-mode: normal">
    <rect x="0" y="0" width="192" height="192" fill="none" fill-rule="nonzero"/>
    <g>
      <path d="M112.072,170.836l-0.005,-0.002c-9.51046,4.4002 -19.9236,6.49852 -30.396,6.125c-7.78905,-0.26654 -15.47189,-1.88987 -22.703,-4.797l-22.054,-66.018l15.28,-29.593h56.347c0,0 3.533,94.286 3.531,94.285z" fill="#ff9100" fill-rule="evenodd"/>
      <path d="M82.438,152.218c-19.528,-18.059 -31.377,-44.2 -30.374,-72.873c0.033,-0.929 0.083,-1.862 0.139,-2.791c-3.56674,-0.92478 -7.22368,-1.45793 -10.906,-1.59c-5.23287,-0.18493 -10.46275,0.44321 -15.503,1.862c-5.37986,9.41326 -8.38391,19.99609 -8.752,30.832c-1.012,28.964 16.515,54.269 41.926,64.504c9.70246,-4.05293 17.90448,-11.02273 23.47,-19.944z" fill="#ffc400" fill-rule="nonzero"/>
      <path d="M87.54,8.69c-12.791,10.25 -22.897,23.761 -29.006,39.33c-3.58028,9.125 -5.71919,18.75144 -6.34,28.534c22.462,5.795 38.691,26.561 37.846,50.706c-0.30069,8.84572 -2.92759,17.45593 -7.616,24.963c8.63785,7.99582 18.69285,14.30834 29.648,18.613c22.218,-10.268 37.98,-32.365 38.891,-58.502c0.591,-16.936 -5.915,-32.028 -15.106,-44.768c-9.709,-13.47 -48.317,-58.876 -48.317,-58.876z" fill="#dd2c00" fill-rule="nonzero"/>
    </g>
    <circle cx="150" cy="137" r="40" filter="url(#dropshadow)" fill="#ffffff" fill-rule="nonzero"/>
    <g fill="#5f6368" fill-rule="evenodd">
      <path d="M146.16,158.9024l-16.416,-12.19776c-0.91171,-0.71447 -1.08822,-2.02522 -0.398,-2.95541c0.69023,-0.93019 1.99588,-1.14114 2.94392,-0.47563l16.176,12.01728c0.9779,-0.42819 2.09026,-0.42819 3.06816,0l16.176,-12.01728c0.61227,-0.46668 1.42823,-0.56796 2.13601,-0.26513c0.70778,0.30282 1.19798,0.96294 1.28323,1.72805c0.08525,0.76511 -0.24763,1.51693 -0.8714,1.96812l-16.41792,12.19584c0,2.12077 -1.71923,3.84 -3.84,3.84c-2.12077,0 -3.84,-1.71923 -3.84,-3.84zM151.92,158.81216c0,1.06039 -0.85961,1.92 -1.92,1.92c-1.06039,0 -1.92,-0.85961 -1.92,-1.92c0,-1.06039 0.85961,-1.92 1.92,-1.92c1.06039,0 1.92,0.85961 1.92,1.92zM133.2384,123.69152c0.3264,0.3168 0.77184,0.51648 1.25184,0.56064c0.26479,0.01616 0.53031,-0.01638 0.78336,-0.096c0.25152,-0.0768 0.48,-0.2016 0.67584,-0.36288c0.19066,-0.15617 0.3458,-0.35123 0.45504,-0.57216c0.10499,-0.21323 0.15952,-0.44776 0.15936,-0.68544v-4.2432c-0.00536,-0.46234 -0.20795,-0.90037 -0.5568,-1.20384c-0.37203,-0.32651 -0.84902,-0.50845 -1.344,-0.51264c-0.51072,0.00768 -0.9984,0.192 -1.35936,0.51072c-0.35245,0.30265 -0.56147,0.7395 -0.576,1.20384v4.24512c0.00969,0.43827 0.19428,0.85446 0.51264,1.15584zM163.95264,129.45152c0.3264,0.3168 0.76992,0.51648 1.25184,0.56064c0.26479,0.01616 0.53031,-0.01638 0.78336,-0.096c0.2496,-0.0768 0.48,-0.2016 0.67392,-0.36288c0.19066,-0.15617 0.3458,-0.35123 0.45504,-0.57216c0.10505,-0.21321 0.15958,-0.44775 0.15936,-0.68544v-4.2432c-0.00487,-0.46204 -0.20675,-0.90002 -0.55488,-1.20384c-0.37303,-0.32737 -0.85154,-0.50937 -1.34784,-0.51264c-0.51072,0.00768 -0.9984,0.192 -1.35936,0.51072c-0.35293,0.3031 -0.562,0.74075 -0.576,1.20576v4.2432c0.0102,0.43856 0.1955,0.85479 0.51456,1.15584zM134.64384,130.016c1.06039,0 1.92,-0.85961 1.92,-1.92c0,-1.06039 -0.85961,-1.92 -1.92,-1.92c-1.06039,0 -1.92,0.85961 -1.92,1.92c0,1.06039 0.85961,1.92 1.92,1.92zM136.56384,139.616c0,1.06039 -0.85961,1.92 -1.92,1.92c-1.06039,0 -1.92,-0.85961 -1.92,-1.92c0,-1.06039 0.85961,-1.92 1.92,-1.92c1.06039,0 1.92,0.85961 1.92,1.92zM134.64384,135.776c1.06039,0 1.92,-0.85961 1.92,-1.92c0,-1.06039 -0.85961,-1.92 -1.92,-1.92c-1.06039,0 -1.92,0.85961 -1.92,1.92c0,1.06039 0.85961,1.92 1.92,1.92zM167.27616,139.616c0,1.06039 -0.85961,1.92 -1.92,1.92c-1.06039,0 -1.92,-0.85961 -1.92,-1.92c0,-1.06039 0.85961,-1.92 1.92,-1.92c1.06039,0 1.92,0.85961 1.92,1.92zM165.35616,135.776c1.06039,0 1.92,-0.85961 1.92,-1.92c0,-1.06039 -0.85961,-1.92 -1.92,-1.92c-1.06039,0 -1.92,0.85961 -1.92,1.92c0,1.06039 0.85961,1.92 1.92,1.92zM167.27616,118.496c0,1.06039 -0.85961,1.92 -1.92,1.92c-1.06039,0 -1.92,-0.85961 -1.92,-1.92c0,-1.06039 0.85961,-1.92 1.92,-1.92c1.06039,0 1.92,0.85961 1.92,1.92zM157.5264,135.77216c-0.46951,-0.03889 -0.91174,-0.23664 -1.25376,-0.56064c-0.31889,-0.30118 -0.50415,-0.71733 -0.51456,-1.15584v-4.2432c0.014,-0.46501 0.22307,-0.90266 0.576,-1.20576c0.36288,-0.32064 0.85056,-0.50304 1.3632,-0.51072c0.50688,0.00768 0.99072,0.192 1.34592,0.51264c0.3552,0.32064 0.5568,0.75264 0.5568,1.20192v4.2432c-0.00015,0.23848 -0.05534,0.4737 -0.16128,0.68736c-0.10924,0.22093 -0.26438,0.41599 -0.45504,0.57216c-0.19898,0.16397 -0.42783,0.28785 -0.67392,0.3648c-0.25152,0.0768 -0.5184,0.10944 -0.78336,0.09408zM148.59456,146.73152c0.3264,0.3168 0.77184,0.51648 1.25184,0.56064c0.26688,0.01536 0.53376,-0.01536 0.78336,-0.096c0.25152,-0.0768 0.48,-0.2016 0.67584,-0.36288c0.19062,-0.15621 0.34575,-0.35127 0.45504,-0.57216c0.10499,-0.21323 0.15952,-0.44776 0.15936,-0.68544v-4.2432c-0.00487,-0.46204 -0.20675,-0.90002 -0.55488,-1.20384c-0.37312,-0.32722 -0.85157,-0.5092 -1.34784,-0.51264c-0.51072,0.00768 -0.9984,0.192 -1.35936,0.51072c-0.35245,0.30265 -0.56147,0.7395 -0.576,1.20384v4.24512c0.00969,0.43827 0.19428,0.85446 0.51264,1.15584zM157.68,147.296c1.06039,0 1.92,-0.85961 1.92,-1.92c0,-1.06039 -0.85961,-1.92 -1.92,-1.92c-1.06039,0 -1.92,0.85961 -1.92,1.92c0,1.06039 0.85961,1.92 1.92,1.92zM151.92,151.136c0,1.06039 -0.85961,1.92 -1.92,1.92c-1.06039,0 -1.92,-0.85961 -1.92,-1.92c0,-1.06039 0.85961,-1.92 1.92,-1.92c1.06039,0 1.92,0.85961 1.92,1.92zM157.68,141.536c1.06039,0 1.92,-0.85961 1.92,-1.92c0,-1.06039 -0.85961,-1.92 -1.92,-1.92c-1.06039,0 -1.92,0.85961 -1.92,1.92c0,1.06039 0.85961,1.92 1.92,1.92zM151.92,135.776c0,1.06039 -0.85961,1.92 -1.92,1.92c-1.06039,0 -1.92,-0.85961 -1.92,-1.92c0,-1.06039 0.85961,-1.92 1.92,-1.92c1.06039,0 1.92,0.85961 1.92,1.92zM150,131.936c1.06039,0 1.92,-0.85961 1.92,-1.92c0,-1.06039 -0.85961,-1.92 -1.92,-1.92c-1.06039,0 -1.92,0.85961 -1.92,1.92c0,1.06039 0.85961,1.92 1.92,1.92zM140.9184,140.97152c0.32448,0.3168 0.76992,0.51648 1.25184,0.56064c0.26496,0.01536 0.53184,-0.01536 0.78144,-0.096c0.25152,-0.0768 0.48,-0.2016 0.67584,-0.36288c0.19066,-0.15617 0.3458,-0.35123 0.45504,-0.57216c0.10499,-0.21323 0.15952,-0.44776 0.15936,-0.68544v-4.2432c-0.00487,-0.46204 -0.20675,-0.90002 -0.55488,-1.20384c-0.37303,-0.32737 -0.85154,-0.50937 -1.34784,-0.51264c-0.51072,0.00768 -0.9984,0.192 -1.35936,0.51072c-0.35245,0.30265 -0.56147,0.7395 -0.576,1.20384v4.24512c0.00969,0.43827 0.19428,0.85446 0.51264,1.15584zM142.32192,147.296c1.06039,0 1.92,-0.85961 1.92,-1.92c0,-1.06039 -0.85961,-1.92 -1.92,-1.92c-1.06039,0 -1.92,0.85961 -1.92,1.92c0,1.06039 0.85961,1.92 1.92,1.92zM144.24192,130.016c0,1.06039 -0.85961,1.92 -1.92,1.92c-1.06039,0 -1.92,-0.85961 -1.92,-1.92c0,-1.06039 0.85961,-1.92 1.92,-1.92c1.06039,0 1.92,0.85961 1.92,1.92zM142.32192,126.176c1.06039,0 1.92,-0.85961 1.92,-1.92c0,-1.06039 -0.85961,-1.92 -1.92,-1.92c-1.06039,0 -1.92,0.85961 -1.92,1.92c0,1.06039 0.85961,1.92 1.92,1.92zM159.6,124.256c0,1.06039 -0.85961,1.92 -1.92,1.92c-1.06039,0 -1.92,-0.85961 -1.92,-1.92c0,-1.06039 0.85961,-1.92 1.92,-1.92c1.06039,0 1.92,0.85961 1.92,1.92z"/>
    </g>
  </g>
  <defs>
    <filter id="dropshadow">
      <feColorMatrix type="matrix" values="0 0 0 0 0  0 0 0 0 0  0 0 0 0 0  0 0 0 .3 0"/>
      <feOffset dx="0" dy="2"/>
      <feGaussianBlur stdDeviation="2"/>
      <feComposite in="SourceGraphic"/>
    </filter>
  </defs>
</svg>
